<?xml version="1.0" encoding="UTF-8"?>
<svg version="1.1" xmlns="http://www.w3.org/2000/svg" width="492" height="492">
<path d="M0 0 C0.89097382 -0.00979385 1.78194763 -0.01958771 2.69992065 -0.02967834 C22.62748133 -0.20352119 41.87777841 0.02669406 61.4453125 4.23828125 C62.46383301 4.45258789 63.48235352 4.66689453 64.53173828 4.88769531 C102.02788249 12.98955129 138.00634831 29.49159215 167.4453125 54.23828125 C168.59093784 55.17994061 169.7367749 56.12134243 170.8828125 57.0625 C183.57068846 67.59850653 195.41237741 79.12367674 205.4453125 92.23828125 C206.13488037 93.1212085 206.13488037 93.1212085 206.83837891 94.02197266 C214.13245578 103.36550722 220.69756795 112.87115546 226.4453125 123.23828125 C226.909375 124.06682617 227.3734375 124.89537109 227.8515625 125.74902344 C246.02079914 158.45601518 258.33937963 196.07945141 258.68359375 233.79296875 C258.6933876 234.68394257 258.70318146 235.57491638 258.71327209 236.4928894 C258.88711494 256.42045008 258.65689969 275.67074716 254.4453125 295.23828125 C254.12385254 296.76606201 254.12385254 296.76606201 253.79589844 298.32470703 C245.69404246 335.82085124 229.1920016 371.79931706 204.4453125 401.23828125 C203.50365314 402.38390659 202.56225132 403.52974365 201.62109375 404.67578125 C191.08508722 417.36365721 179.55991701 429.20534616 166.4453125 439.23828125 C165.56238525 439.92784912 165.56238525 439.92784912 164.66162109 440.63134766 C155.31808653 447.92542453 145.81243829 454.4905367 135.4453125 460.23828125 C134.61676758 460.70234375 133.78822266 461.16640625 132.93457031 461.64453125 C100.22757857 479.81376789 62.60414234 492.13234838 24.890625 492.4765625 C23.99965118 492.48635635 23.10867737 492.49615021 22.19070435 492.50624084 C2.26314367 492.68008369 -16.98715341 492.44986844 -36.5546875 488.23828125 C-38.08246826 487.91682129 -38.08246826 487.91682129 -39.64111328 487.58886719 C-77.13725749 479.48701121 -113.11572331 462.98497035 -142.5546875 438.23828125 C-143.70031284 437.29662189 -144.8461499 436.35522007 -145.9921875 435.4140625 C-158.68006346 424.87805597 -170.52175241 413.35288576 -180.5546875 400.23828125 C-181.01439941 399.64966309 -181.47411133 399.06104492 -181.94775391 398.45458984 C-189.24183078 389.11105528 -195.80694295 379.60540704 -201.5546875 369.23828125 C-202.01875 368.40973633 -202.4828125 367.58119141 -202.9609375 366.72753906 C-221.13017414 334.02054732 -233.44875463 296.39711109 -233.79296875 258.68359375 C-233.8027626 257.79261993 -233.81255646 256.90164612 -233.82264709 255.9836731 C-233.99648994 236.05611242 -233.76627469 216.80581534 -229.5546875 197.23828125 C-229.34038086 196.21976074 -229.12607422 195.20124023 -228.90527344 194.15185547 C-220.80341746 156.65571126 -204.3013766 120.67724544 -179.5546875 91.23828125 C-178.61302814 90.09265591 -177.67162632 88.94681885 -176.73046875 87.80078125 C-166.19446222 75.11290529 -154.66929201 63.27121634 -141.5546875 53.23828125 C-140.96606934 52.77856934 -140.37745117 52.31885742 -139.77099609 51.84521484 C-130.42746153 44.55113797 -120.92181329 37.9860258 -110.5546875 32.23828125 C-109.72614258 31.77421875 -108.89759766 31.31015625 -108.04394531 30.83203125 C-75.33695357 12.66279461 -37.71351734 0.34421412 0 0 Z " fill="#F1F0F1" transform="translate(233.5546875,-0.23828125)"/>
<path d="M0 0 C0.89097382 -0.00979385 1.78194763 -0.01958771 2.69992065 -0.02967834 C22.62748133 -0.20352119 41.87777841 0.02669406 61.4453125 4.23828125 C62.46383301 4.45258789 63.48235352 4.66689453 64.53173828 4.88769531 C102.02788249 12.98955129 138.00634831 29.49159215 167.4453125 54.23828125 C168.59093784 55.17994061 169.7367749 56.12134243 170.8828125 57.0625 C183.57068846 67.59850653 195.41237741 79.12367674 205.4453125 92.23828125 C206.13488037 93.1212085 206.13488037 93.1212085 206.83837891 94.02197266 C214.13245578 103.36550722 220.69756795 112.87115546 226.4453125 123.23828125 C226.909375 124.06682617 227.3734375 124.89537109 227.8515625 125.74902344 C246.02079914 158.45601518 258.33937963 196.07945141 258.68359375 233.79296875 C258.6933876 234.68394257 258.70318146 235.57491638 258.71327209 236.4928894 C258.88711494 256.42045008 258.65689969 275.67074716 254.4453125 295.23828125 C254.12385254 296.76606201 254.12385254 296.76606201 253.79589844 298.32470703 C245.69404246 335.82085124 229.1920016 371.79931706 204.4453125 401.23828125 C203.50365314 402.38390659 202.56225132 403.52974365 201.62109375 404.67578125 C191.08508722 417.36365721 179.55991701 429.20534616 166.4453125 439.23828125 C165.56238525 439.92784912 165.56238525 439.92784912 164.66162109 440.63134766 C155.31808653 447.92542453 145.81243829 454.4905367 135.4453125 460.23828125 C134.61676758 460.70234375 133.78822266 461.16640625 132.93457031 461.64453125 C100.22757857 479.81376789 62.60414234 492.13234838 24.890625 492.4765625 C23.99965118 492.48635635 23.10867737 492.49615021 22.19070435 492.50624084 C2.26314367 492.68008369 -16.98715341 492.44986844 -36.5546875 488.23828125 C-38.08246826 487.91682129 -38.08246826 487.91682129 -39.64111328 487.58886719 C-77.13725749 479.48701121 -113.11572331 462.98497035 -142.5546875 438.23828125 C-143.70031284 437.29662189 -144.8461499 436.35522007 -145.9921875 435.4140625 C-158.68006346 424.87805597 -170.52175241 413.35288576 -180.5546875 400.23828125 C-181.01439941 399.64966309 -181.47411133 399.06104492 -181.94775391 398.45458984 C-189.24183078 389.11105528 -195.80694295 379.60540704 -201.5546875 369.23828125 C-202.01875 368.40973633 -202.4828125 367.58119141 -202.9609375 366.72753906 C-221.13017414 334.02054732 -233.44875463 296.39711109 -233.79296875 258.68359375 C-233.8027626 257.79261993 -233.81255646 256.90164612 -233.82264709 255.9836731 C-233.99648994 236.05611242 -233.76627469 216.80581534 -229.5546875 197.23828125 C-229.34038086 196.21976074 -229.12607422 195.20124023 -228.90527344 194.15185547 C-220.80341746 156.65571126 -204.3013766 120.67724544 -179.5546875 91.23828125 C-178.61302814 90.09265591 -177.67162632 88.94681885 -176.73046875 87.80078125 C-166.19446222 75.11290529 -154.66929201 63.27121634 -141.5546875 53.23828125 C-140.96606934 52.77856934 -140.37745117 52.31885742 -139.77099609 51.84521484 C-130.42746153 44.55113797 -120.92181329 37.9860258 -110.5546875 32.23828125 C-109.72614258 31.77421875 -108.89759766 31.31015625 -108.04394531 30.83203125 C-75.33695357 12.66279461 -37.71351734 0.34421412 0 0 Z M-20.5546875 49.23828125 C-21.47548096 49.36831543 -22.39627441 49.49834961 -23.3449707 49.63232422 C-73.08434745 57.31178806 -119.68281551 86.88318085 -149.47265625 127.15625 C-156.24836865 136.46637269 -162.25306387 146.01822064 -167.5546875 156.23828125 C-168.15796875 157.39070313 -168.76125 158.543125 -169.3828125 159.73046875 C-182.23100558 185.71622862 -187.74289314 213.2092277 -187.73999023 241.99731445 C-187.74216778 244.40399112 -187.76036279 246.81020132 -187.77929688 249.21679688 C-187.95390745 297.38648746 -169.32769215 341.75785509 -138.5546875 378.23828125 C-137.95269531 378.975625 -137.35070312 379.71296875 -136.73046875 380.47265625 C-135.38540176 382.10106665 -133.97715922 383.6770318 -132.5546875 385.23828125 C-131.8946875 385.23828125 -131.2346875 385.23828125 -130.5546875 385.23828125 C-129.5646875 387.21828125 -129.5646875 387.21828125 -128.5546875 389.23828125 C-127.8946875 389.23828125 -127.2346875 389.23828125 -126.5546875 389.23828125 C-126.5546875 389.89828125 -126.5546875 390.55828125 -126.5546875 391.23828125 C-125.06164035 392.81478581 -125.06164035 392.81478581 -123.08984375 394.43359375 C-122.35652832 395.0565332 -121.62321289 395.67947266 -120.86767578 396.32128906 C-82.34870868 428.24560083 -37.24631639 446.68854031 13.1328125 446.67578125 C14.03172211 446.67684875 14.93063171 446.67791626 15.85678101 446.67901611 C31.53950404 446.65224696 46.2076686 445.17783347 61.4453125 441.23828125 C62.3439502 441.01366211 63.24258789 440.78904297 64.16845703 440.55761719 C77.47100312 437.15711517 90.02435268 432.0455166 102.4453125 426.23828125 C103.12400391 425.92165527 103.80269531 425.6050293 104.50195312 425.27880859 C130.43389952 412.92040675 153.91835697 392.83574398 171.4453125 370.23828125 C171.86393555 369.7067041 172.28255859 369.17512695 172.71386719 368.62744141 C194.23821898 341.14360452 206.73538141 309.50148393 212.4453125 275.23828125 C212.70900635 273.67170776 212.70900635 273.67170776 212.97802734 272.07348633 C213.53081502 267.53652628 213.64405811 263.08562231 213.68359375 258.51953125 C213.6933876 257.59236801 213.70318146 256.66520477 213.71327209 255.70994568 C214.10431275 227.72213525 214.10431275 227.72213525 209.4453125 200.23828125 C209.12385254 198.97685303 209.12385254 198.97685303 208.79589844 197.68994141 C201.37696458 169.06711142 187.6774533 141.75209687 168.4453125 119.23828125 C167.795625 118.47773437 167.1459375 117.7171875 166.4765625 116.93359375 C155.89790499 104.89444995 144.6900378 93.34094275 131.4453125 84.23828125 C130.77081055 83.77357422 130.09630859 83.30886719 129.40136719 82.83007812 C107.32822535 67.8381187 83.48232193 57.78720252 57.6328125 51.42578125 C56.84632324 51.23064941 56.05983398 51.03551758 55.24951172 50.83447266 C42.34595429 47.84291739 29.42398703 46.90165388 16.21850586 46.97753906 C14.01192673 46.98826126 11.80616425 46.97756024 9.59960938 46.96484375 C-0.5785975 46.9546212 -10.480775 47.81366109 -20.5546875 49.23828125 Z " fill="#844DF7" transform="translate(233.5546875,-0.23828125)"/>
<path d="M0 0 C5.33206862 4.12363251 8.54652039 11.04424631 9.7890625 17.5625 C10.02356414 23.70217937 8.39811723 29.43344939 4.55884743 34.27308846 C2.25347865 36.7425863 -0.11814833 39.12288918 -2.5300293 41.48852539 C-3.43445267 42.39528519 -4.33887604 43.30204498 -5.27070618 44.23628235 C-7.73915762 46.71041406 -10.22274432 49.16881482 -12.70956397 51.62446523 C-15.31971217 54.2069275 -17.91594997 56.80330353 -20.51387024 59.39805603 C-24.87954953 63.75454669 -29.25426146 68.10178456 -33.63549805 72.44262695 C-39.79344101 78.54384246 -45.93417696 84.66215376 -52.07187784 90.78372204 C-56.34488682 95.04422841 -60.62195854 99.30065563 -64.89982247 103.55628657 C-65.93125382 104.58237462 -66.9625828 105.60856556 -67.99380851 106.63486028 C-71.39134889 110.01576854 -74.79355442 113.391912 -78.19799805 116.76586914 C-79.04349213 117.60710327 -79.88898621 118.4483374 -80.76010132 119.31506348 C-85.02525864 123.53422947 -89.36768785 127.59122991 -93.91248798 131.50705051 C-96.37397445 133.66406005 -98.67294082 135.9583442 -100.96679688 138.29174805 C-101.66616112 139.00053101 -101.66616112 139.00053101 -102.37965393 139.72363281 C-103.37533796 140.73299193 -104.36990742 141.74345162 -105.36341858 142.75494957 C-106.94207426 144.36065689 -108.5254154 145.96160527 -110.11022949 147.56123352 C-114.61030446 152.10366374 -119.10742712 156.64889986 -123.58837891 161.21020508 C-126.34453292 164.01509669 -129.11054211 166.80994054 -131.8830719 169.59864235 C-132.92964652 170.6550501 -133.97257248 171.71508668 -135.01158142 172.77893639 C-142.8685284 180.81967993 -149.36606727 186.24667326 -160.875 187.375 C-169.11757567 186.69937904 -174.58327969 183.53413059 -180.53515625 177.87890625 C-181.09176437 177.35742508 -181.6483725 176.83594391 -182.22184753 176.29866028 C-189.47777428 169.44921611 -196.4808648 162.34016367 -203.5 155.25 C-206.19098886 152.53213645 -208.88548783 149.81782015 -211.58203125 147.10546875 C-212.17804642 146.50115524 -212.77406158 145.89684174 -213.38813782 145.2742157 C-217.04146236 141.60001556 -220.82992017 138.15235065 -224.74943542 134.76457214 C-227.67676595 132.19369406 -230.46110031 129.48901447 -233.234375 126.75390625 C-234.10210541 125.89828346 -234.10210541 125.89828346 -234.98736572 125.02537537 C-236.19532144 123.83110883 -237.4018358 122.63538273 -238.60693359 121.43823242 C-239.83003907 120.22670876 -241.05761432 119.01968145 -242.28955078 117.81713867 C-244.09366086 116.05589238 -245.88396865 114.28158247 -247.671875 112.50390625 C-248.21672546 111.97656387 -248.76157593 111.4492215 -249.32293701 110.90589905 C-254.93076916 105.26617553 -258.25644906 99.27751911 -258.3125 91.1875 C-258.07949344 84.16723775 -256.41172829 79.29563906 -251.6875 74.0625 C-245.59675784 68.99723994 -240.36494893 66.65873819 -232.43359375 66.796875 C-217.72683581 68.2194348 -207.79342363 81.80830436 -197.9921875 91.66015625 C-196.90810871 92.74610582 -195.82380471 93.83183059 -194.73928833 94.91734314 C-191.91939399 97.74101078 -189.10251855 100.56767058 -186.28631592 103.39501953 C-183.39846584 106.29319687 -180.5076951 109.18845795 -177.6171875 112.08398438 C-171.97113701 117.74068038 -166.32828055 123.40054888 -160.6875 129.0625 C-155.14446473 124.44643029 -150.0238195 119.5299175 -144.94165039 114.41430664 C-144.09516434 113.56636032 -143.24867828 112.718414 -142.37654114 111.84477234 C-140.07309118 109.53654712 -137.77185021 107.22614589 -135.47143483 104.9148972 C-133.0509831 102.48439754 -130.62723497 100.05719016 -128.20372009 97.62974548 C-121.52756825 90.94159767 -114.85645222 84.2484343 -108.18540192 77.55519867 C-102.06915826 71.4187153 -95.95182598 65.28332747 -89.83041567 59.15199751 C-87.42425934 56.74169979 -85.01918129 54.3303465 -82.61662483 51.91646004 C-79.93425733 49.22207216 -77.24881512 46.53078302 -74.56274414 43.84008789 C-73.77963867 43.0518161 -72.9965332 42.26354431 -72.18969727 41.4513855 C-68.04166679 37.30296057 -63.80939773 33.32226027 -59.35572052 29.50276756 C-57.2994815 27.72750205 -55.35591911 25.86026662 -53.43359375 23.94140625 C-52.36915039 22.87889648 -52.36915039 22.87889648 -51.28320312 21.79492188 C-50.57099609 21.07884766 -49.85878906 20.36277344 -49.125 19.625 C-48.40892578 18.91279297 -47.69285156 18.20058594 -46.95507812 17.46679688 C-42.89375544 13.39808325 -39.01907115 9.2418047 -35.31884766 4.84106445 C-25.24187446 -6.14527942 -12.72144818 -7.52615477 0 0 Z " fill="#844CF7" transform="translate(374.6875,150.9375)"/>
<path d="M0 0 C0.33 0.66 0.66 1.32 1 2 C-4.54330709 2.12598425 -4.54330709 2.12598425 -6.8125 1.5 C-9.66260744 0.84854687 -12.32990167 0.9057598 -15.25 0.9375 C-16.86648437 0.95103516 -16.86648437 0.95103516 -18.515625 0.96484375 C-19.74539062 0.98224609 -19.74539062 0.98224609 -21 1 C-21 0.34 -21 -0.32 -21 -1 C-23.31 -0.34 -25.62 0.32 -28 1 C-20.76558341 -7.3766929 -8.62988151 -4.77694451 0 0 Z " fill="#7B47EA" transform="translate(155,222)"/>
<path d="M0 0 C17.33181469 6.52341365 33.77556371 19.21240695 47 32 C42.85343054 32 41.76128212 30.29521293 38.6875 27.5625 C33.56023948 23.09422908 28.19530473 19.37251087 22.36987305 15.86938477 C20.88301078 14.96064175 19.43669992 13.98613722 18 13 C18 12.34 18 11.68 18 11 C17.31550781 10.74476562 16.63101562 10.48953125 15.92578125 10.2265625 C12.55038274 8.81150892 9.40025962 7.12741434 6.1875 5.375 C5.59001953 5.05015625 4.99253906 4.7253125 4.37695312 4.390625 C2.91662865 3.59620849 1.45812509 2.79844624 0 2 C0 1.34 0 0.68 0 0 Z " fill="#794BDB" transform="translate(362,29)"/>
<path d="M0 0 C-0.99 0.66 -1.98 1.32 -3 2 C-2.01 2.66 -1.02 3.32 0 4 C-15.18 4 -30.36 4 -46 4 C-46 3.67 -46 3.34 -46 3 C-44.64636353 2.91697632 -44.64636353 2.91697632 -43.26538086 2.83227539 C-39.89007138 2.62390689 -36.51493915 2.41300811 -33.13989258 2.20043945 C-31.68422579 2.10926866 -30.22849701 2.01908186 -28.77270508 1.92993164 C-26.66991034 1.80098328 -24.56737033 1.6683975 -22.46484375 1.53515625 C-21.202771 1.456604 -19.94069824 1.37805176 -18.64038086 1.29711914 C-2.26160418 -0.03967727 -2.26160418 -0.03967727 0 0 Z " fill="#6D37E9" transform="translate(283,444)"/>
<path d="M0 0 C0 0.66 0 1.32 0 2 C12.21 2 24.42 2 37 2 C37 1.34 37 0.68 37 0 C40.96 0.33 44.92 0.66 49 1 C49 1.33 49 1.66 49 2 C42.56396835 2.81914609 36.29657083 3.14759717 29.8125 3.1328125 C28.86995361 3.13376923 27.92740723 3.13472595 26.95629883 3.13571167 C24.97639905 3.13638792 22.99649699 3.13457263 21.01660156 3.13037109 C18.00841226 3.12501498 15.00037223 3.13033507 11.9921875 3.13671875 C10.05729134 3.13605787 8.12239527 3.1347765 6.1875 3.1328125 C5.29973877 3.13483673 4.41197754 3.13686096 3.49731445 3.13894653 C-2.07583885 3.11830767 -7.47038555 2.70378182 -13 2 C-13 1.67 -13 1.34 -13 1 C-11.20843648 0.83222817 -9.4167455 0.66581706 -7.625 0.5 C-6.62726563 0.4071875 -5.62953125 0.314375 -4.6015625 0.21875 C-2 0 -2 0 0 0 Z " fill="#6C34E7" transform="translate(228,489)"/>
<path d="M0 0 C2.64 0.33 5.28 0.66 8 1 C8 1.66 8 2.32 8 3 C8.81682251 3.24327026 8.81682251 3.24327026 9.65014648 3.49145508 C15.49133255 5.32193903 20.70643555 7.74424635 26.0625 10.6875 C26.83271484 11.10322266 27.60292969 11.51894531 28.39648438 11.94726562 C30.267784 12.9584648 32.13440534 13.97831383 34 15 C33.34 15.33 32.68 15.66 32 16 C29.80444336 15.16723633 29.80444336 15.16723633 27.08984375 13.83203125 C26.09919922 13.35056641 25.10855469 12.86910156 24.08789062 12.37304688 C23.04826172 11.85806641 22.00863281 11.34308594 20.9375 10.8125 C18.90551576 9.81784953 16.87297064 8.82434399 14.83984375 7.83203125 C13.36813721 7.11200928 13.36813721 7.11200928 11.86669922 6.37744141 C7.94972901 4.49534756 3.98767391 2.72642084 0 1 C0 0.67 0 0.34 0 0 Z " fill="#6A3AD6" transform="translate(314,57)"/>
<path d="M0 0 C0.99561083 2.609187 1.10297218 3.72634253 0.10375977 6.38183594 C-0.36231689 7.24067383 -0.82839355 8.09951172 -1.30859375 8.984375 C-1.80810547 9.91894531 -2.30761719 10.85351562 -2.82226562 11.81640625 C-3.35529297 12.78449219 -3.88832031 13.75257813 -4.4375 14.75 C-4.96666016 15.73355469 -5.49582031 16.71710938 -6.04101562 17.73046875 C-7.34997465 20.15970802 -8.66988469 22.58229934 -10 25 C-10.66 25 -11.32 25 -12 25 C-10.37317535 19.29676416 -7.66802013 14.31986097 -4.875 9.125 C-4.40707031 8.24585938 -3.93914063 7.36671875 -3.45703125 6.4609375 C-2.3087907 4.30505729 -1.15636097 2.15153223 0 0 Z " fill="#8962DF" transform="translate(33,121)"/>
<path d="M0 0 C0.93423645 3.01031744 1.04449911 3.86650268 0 7 C-0.99 7 -1.98 7 -3 7 C-2.67 7.99 -2.34 8.98 -2 10 C-4.64 11.98 -7.28 13.96 -10 16 C-10.66 15.67 -11.32 15.34 -12 15 C-11.38511719 14.25234375 -10.77023438 13.5046875 -10.13671875 12.734375 C-8.92435547 11.25710937 -8.92435547 11.25710937 -7.6875 9.75 C-6.88699219 8.77546875 -6.08648437 7.8009375 -5.26171875 6.796875 C-3.45557742 4.5633738 -1.70180085 2.31312737 0 0 Z " fill="#8C5FE9" transform="translate(62,81)"/>
<path d="M0 0 C0.33 0 0.66 0 1 0 C0.85919445 2.77117304 0.71256882 5.54182641 0.5625 8.3125 C0.52318359 9.09818359 0.48386719 9.88386719 0.44335938 10.69335938 C0.40146484 11.45068359 0.35957031 12.20800781 0.31640625 12.98828125 C0.27974854 13.68477783 0.24309082 14.38127441 0.20532227 15.09887695 C0 17 0 17 -1 20 C-1.99 20.33 -2.98 20.66 -4 21 C-3.39700836 13.76410027 -1.8849413 7.00629124 0 0 Z " fill="#7443E0" transform="translate(445,279)"/>
<path d="M0 0 C-3.07319795 3.17233336 -5.28514601 4.31714516 -9.625 4.4375 C-12.4854797 4.43261864 -13.58021599 4.36153204 -15.7734375 2.47265625 C-16.17820313 1.98667969 -16.58296875 1.50070312 -17 1 C-11.02197063 -1.20927172 -6.26039609 -0.93213141 0 0 Z " fill="#9F73F4" transform="translate(190,9)"/>
<path d="M0 0 C4.16138263 -0.08159574 7.9472484 0.01751476 12 1 C12 1.66 12 2.32 12 3 C11.34 3.66 10.68 4.32 10 5 C2.81578947 4.54385965 2.81578947 4.54385965 -1 2 C-0.67 1.34 -0.34 0.68 0 0 Z " fill="#7944ED" transform="translate(178,480)"/>
<path d="M0 0 C3.76687864 3.76687864 4.67652988 5.14727622 6 10 C4.02 10.99 2.04 11.98 0 13 C0 8.71 0 4.42 0 0 Z " fill="#7A45EB" transform="translate(454,115)"/>
<path d="M0 0 C2.64 0.33 5.28 0.66 8 1 C3.78565709 3.19340221 -0.56995679 4.67095444 -5.0625 6.1875 C-5.87783203 6.47302734 -6.69316406 6.75855469 -7.53320312 7.05273438 C-8.31759766 7.31763672 -9.10199219 7.58253906 -9.91015625 7.85546875 C-10.62308838 8.09934326 -11.33602051 8.34321777 -12.07055664 8.59448242 C-14 9 -14 9 -17 8 C-11.39 6.02 -5.78 4.04 0 2 C0 1.34 0 0.68 0 0 Z " fill="#6936D9" transform="translate(189,51)"/>
<path d="M0 0 C0.33 0.66 0.66 1.32 1 2 C-0.36125 3.11375 -0.36125 3.11375 -1.75 4.25 C-4.3069423 6.37674584 -6.69110193 8.60229816 -9 11 C-9 8 -9 8 -7.5390625 6.2109375 C-6.90742188 5.60507813 -6.27578125 4.99921875 -5.625 4.375 C-4.68527344 3.45847656 -4.68527344 3.45847656 -3.7265625 2.5234375 C-2 1 -2 1 0 0 Z M-10 11 C-9.34 11.33 -8.68 11.66 -8 12 C-8.66 13.32 -9.32 14.64 -10 16 C-10.66 16 -11.32 16 -12 16 C-11.34 14.35 -10.68 12.7 -10 11 Z " fill="#7D4BE4" transform="translate(311,185)"/>
<path d="M0 0 C5.76044212 0.60636233 10.72014369 2.75658279 16 5 C15.01 5.66 14.02 6.32 13 7 C12.34 6.67 11.68 6.34 11 6 C11 6.66 11 7.32 11 8 C10.34 7.67 9.68 7.34 9 7 C9.33 6.34 9.66 5.68 10 5 C9.236875 4.855625 8.47375 4.71125 7.6875 4.5625 C5 4 5 4 2 3 C2 2.34 2 1.68 2 1 C1.34 0.67 0.68 0.34 0 0 Z " fill="#9F7CE8" transform="translate(325,13)"/>
<path d="M0 0 C0.66 0 1.32 0 2 0 C1.72482232 4.67802059 -0.33193886 6.74638753 -3.52734375 9.86328125 C-5 11 -5 11 -7 11 C-6.6875 9.0625 -6.6875 9.0625 -6 7 C-5.01 6.67 -4.02 6.34 -3 6 C-3 5.34 -3 4.68 -3 4 C-2.34 4 -1.68 4 -1 4 C-0.67 2.68 -0.34 1.36 0 0 Z " fill="#804EEB" transform="translate(303,255)"/>
<path d="M0 0 C1.15699511 3.47098534 0.82954442 4.14733125 -0.43359375 7.44921875 C-0.75263672 8.29677734 -1.07167969 9.14433594 -1.40039062 10.01757812 C-1.91375977 11.33918945 -1.91375977 11.33918945 -2.4375 12.6875 C-2.77587891 13.58017578 -3.11425781 14.47285156 -3.46289062 15.39257812 C-4.30037307 17.59834174 -5.14632974 19.80046176 -6 22 C-7.14407587 18.1552303 -6.63093421 16.30656401 -5.125 12.5625 C-3.72346869 9.03906988 -2.63848347 5.74259993 -2 2 C-1.34 2 -0.68 2 0 2 C0 1.34 0 0.68 0 0 Z " fill="#6838D6" transform="translate(60,166)"/>
<path d="M0 0 C0.66 0 1.32 0 2 0 C3.2890625 1.6796875 3.2890625 1.6796875 4.625 3.875 C5.29402344 4.95394531 5.29402344 4.95394531 5.9765625 6.0546875 C7 8 7 8 7 10 C7.99 10 8.98 10 10 10 C10.66 12.31 11.32 14.62 12 17 C6.85104502 12.47516078 3.43278366 6.89607799 0 1 C0 0.67 0 0.34 0 0 Z " fill="#7242DC" transform="translate(37,376)"/>
<path d="M0 0 C1.485 0.99 1.485 0.99 3 2 C3.66 2.33 4.32 2.66 5 3 C4.67 3.99 4.34 4.98 4 6 C3.62492382 7.89180758 3.27266781 9.78821577 2.9375 11.6875 C2.67259766 13.17830078 2.67259766 13.17830078 2.40234375 14.69921875 C2.26957031 15.45847656 2.13679688 16.21773437 2 17 C1.67 17 1.34 17 1 17 C0.67 11.39 0.34 5.78 0 0 Z " fill="#EDF0E2" transform="translate(384,161)"/>
<path d="M0 0 C0.99 0.99 1.98 1.98 3 3 C0.69 4.98 -1.62 6.96 -4 9 C-4.33 8.01 -4.66 7.02 -5 6 C-3.59554165 3.7363436 -1.8032087 1.9791315 0 0 Z " fill="#763FEC" transform="translate(105,98)"/>
<path d="M0 0 C0.33 1.98 0.66 3.96 1 6 C-0.11375 5.814375 -1.2275 5.62875 -2.375 5.4375 C-5.82568861 4.68319343 -5.82568861 4.68319343 -8 6 C-8.66 5.34 -9.32 4.68 -10 4 C-8.71086513 3.32845067 -7.41859796 2.66291141 -6.125 2 C-5.40570313 1.62875 -4.68640625 1.2575 -3.9453125 0.875 C-2 0 -2 0 0 0 Z " fill="#976DE9" transform="translate(138,25)"/>
<path d="M0 0 C0.66 0.33 1.32 0.66 2 1 C1.525625 1.763125 1.05125 2.52625 0.5625 3.3125 C-1.10106097 5.96410548 -1.10106097 5.96410548 -2 9 C-2.99 9 -3.98 9 -5 9 C-5.66 10.32 -6.32 11.64 -7 13 C-6.65986985 7.55791766 -3.29703472 4.06331802 0 0 Z " fill="#6F3BE3" transform="translate(125,223)"/>
<path d="M0 0 C1.77155654 0.11429397 3.54226229 0.24183037 5.3125 0.375 C6.79169922 0.47941406 6.79169922 0.47941406 8.30078125 0.5859375 C11 1 11 1 14 3 C9.38 3 4.76 3 0 3 C0 2.01 0 1.02 0 0 Z " fill="#703AE3" transform="translate(202,442)"/>
<path d="M0 0 C0.66 0.99 1.32 1.98 2 3 C2 2.34 2 1.68 2 1 C2.66 1 3.32 1 4 1 C3.25675659 3.39489543 2.52942646 4.70777616 0.30859375 5.93359375 C-1.44073501 6.67219923 -3.21934149 7.34049685 -5 8 C-3.62845496 5.04590299 -2.01136276 2.55991624 0 0 Z " fill="#7643E9" transform="translate(411,361)"/>
<path d="M0 0 C-1 3 -1 3 -3 4 C-3.99 5.485 -3.99 5.485 -5 7 C-6.32 6.34 -7.64 5.68 -9 5 C-4.5 0 -4.5 0 0 0 Z " fill="#E9E5EF" transform="translate(289,277)"/>
<path d="M0 0 C1.98 0.99 1.98 0.99 4 2 C4 3.65 4 5.3 4 7 C4.66 7 5.32 7 6 7 C6.33 9.31 6.66 11.62 7 14 C3.94998169 10.33997803 0 4.92148529 0 0 Z " fill="#703BE1" transform="translate(425,153)"/>
<path d="M0 0 C1.29639126 4.32130419 -0.04095286 6.08190572 -2 10 C-3.32 10 -4.64 10 -6 10 C-4.6302836 6.00499382 -2.74277578 3.19990508 0 0 Z " fill="#956CE8" transform="translate(45,103)"/>
<path d="M0 0 C5.63281599 -0.2396943 10.54538831 0.61470179 16 2 C16 2.33 16 2.66 16 3 C10.39 3 4.78 3 -1 3 C-0.67 2.01 -0.34 1.02 0 0 Z " fill="#6A36DF" transform="translate(282,4)"/>
<path d="M0 0 C0 0.66 0 1.32 0 2 C2.64 2 5.28 2 8 2 C8 2.33 8 2.66 8 3 C0.90272572 3.10808032 -5.96094956 2.93854006 -13 2 C-13 1.67 -13 1.34 -13 1 C-11.20843648 0.83222817 -9.4167455 0.66581706 -7.625 0.5 C-6.62726563 0.4071875 -5.62953125 0.314375 -4.6015625 0.21875 C-2 0 -2 0 0 0 Z " fill="#632DE0" transform="translate(228,489)"/>
<path d="M0 0 C0.99 0 1.98 0 3 0 C3 0.66 3 1.32 3 2 C4.98 1.34 6.96 0.68 9 0 C9.33 1.98 9.66 3.96 10 6 C6.51329166 4.8905928 3.22515763 3.73662334 0 2 C0 1.34 0 0.68 0 0 Z " fill="#763DEF" transform="translate(136,465)"/>
<path d="M0 0 C0.33 0 0.66 0 1 0 C1.82351864 6.38226945 2.12086218 12.56744599 2 19 C1.67 19 1.34 19 1 19 C0.67 17.35 0.34 15.7 0 14 C-0.33 14 -0.66 14 -1 14 C-0.67 9.38 -0.34 4.76 0 0 Z " fill="#6931E1" transform="translate(490,215)"/>
<path d="M0 0 C0 0.99 0 1.98 0 3 C-1 4 -2 5 -3 6 C-3 6.99 -3 7.98 -3 9 C-3.66 9 -4.32 9 -5 9 C-5 9.66 -5 10.32 -5 11 C-6.32 10.34 -7.64 9.68 -9 9 C-6.03 6.03 -3.06 3.06 0 0 Z " fill="#EFE4F4" transform="translate(105,103)"/>
<path d="M0 0 C0.66 0.33 1.32 0.66 2 1 C2 1.66 2 2.32 2 3 C1.401875 3.268125 0.80375 3.53625 0.1875 3.8125 C-2.05510787 4.8694745 -2.05510787 4.8694745 -3.5 6.6875 C-3.995 7.120625 -4.49 7.55375 -5 8 C-6.32 7.67 -7.64 7.34 -9 7 C-6.03 4.69 -3.06 2.38 0 0 Z " fill="#936AE5" transform="translate(105,43)"/>
<path d="M0 0 C-0.33 0.99 -0.66 1.98 -1 3 C-6.61 3 -12.22 3 -18 3 C-18 2.67 -18 2.34 -18 2 C-11.93184478 0.77100654 -6.20104812 -0.27560214 0 0 Z " fill="#D2BEF5" transform="translate(215,2)"/>
<path d="M0 0 C0.66 0 1.32 0 2 0 C2.0825 0.78375 2.165 1.5675 2.25 2.375 C2.70849401 5.1446618 2.70849401 5.1446618 5 6.125 C5.66 6.41375 6.32 6.7025 7 7 C7.33 7.99 7.66 8.98 8 10 C4.18315774 8.44499019 1.80804268 5.96404505 -1 3 C-0.67 2.01 -0.34 1.02 0 0 Z " fill="#733AE7" transform="translate(91,433)"/>
<path d="M0 0 C4.70940171 1.48717949 4.70940171 1.48717949 6.0625 3.875 C6.371875 4.57625 6.68125 5.2775 7 6 C8.29470975 7.37086915 9.62150897 8.71340837 11 10 C10.67 10.66 10.34 11.32 10 12 C8.70212134 10.75645114 7.41193241 9.5048736 6.125 8.25 C5.40570313 7.55390625 4.68640625 6.8578125 3.9453125 6.140625 C2.13520321 4.14877783 1.05151914 2.4572342 0 0 Z " fill="#6A36DD" transform="translate(60,407)"/>
<path d="M0 0 C4.3890815 0.51035831 7.33708062 1.52214277 11 4 C8.21176345 5.0326802 7.1322726 5.04509293 4.25 4.0625 C3.5075 3.711875 2.765 3.36125 2 3 C2 2.34 2 1.68 2 1 C1.34 0.67 0.68 0.34 0 0 Z " fill="#6E39E2" transform="translate(145,219)"/>
<path d="M0 0 C2 1 2 1 4 3 C4.125 5.625 4.125 5.625 4 8 C2.02 6.35 0.04 4.7 -2 3 C-1.34 2.01 -0.68 1.02 0 0 Z " fill="#743FEA" transform="translate(73,417)"/>
<path d="M0 0 C0.66 0 1.32 0 2 0 C1.67 3.63 1.34 7.26 1 11 C0.34 11 -0.32 11 -1 11 C-1.125 3.375 -1.125 3.375 0 0 Z " fill="#7A40F2" transform="translate(488,279)"/>
<path d="M0 0 C0.99 0.33 1.98 0.66 3 1 C2.67 5.29 2.34 9.58 2 14 C1.67 14 1.34 14 1 14 C0.67 9.38 0.34 4.76 0 0 Z " fill="#8D58F9" transform="translate(2,208)"/>
<path d="M0 0 C3.7952131 1.49097658 5.61042731 3.75700849 8 7 C6.68 7 5.36 7 4 7 C0 2.77777778 0 2.77777778 0 0 Z " fill="#E7E0F0" transform="translate(155,291)"/>
<path d="M0 0 C0.99 0.495 0.99 0.495 2 1 C2 1.99 2 2.98 2 4 C2.99 4 3.98 4 5 4 C5 6.97 5 9.94 5 13 C2.53698577 10.53698577 2.23233479 8.72639964 1.375 5.375 C1.11460937 4.37210938 0.85421875 3.36921875 0.5859375 2.3359375 C0.39257812 1.56507813 0.19921875 0.79421875 0 0 Z " fill="#6D37DE" transform="translate(436,178)"/>
<path d="M0 0 C0.66 0.33 1.32 0.66 2 1 C-0.66666667 3.66666667 -3.33333333 6.33333333 -6 9 C-6.99 8.67 -7.98 8.34 -9 8 C-6.03 5.36 -3.06 2.72 0 0 Z " fill="#9873E3" transform="translate(88,56)"/>
<path d="M0 0 C-1.23884319 0.72767003 -2.49168341 1.43154815 -3.75 2.125 C-4.79414063 2.71667969 -4.79414063 2.71667969 -5.859375 3.3203125 C-8 4 -8 4 -10.265625 3.1171875 C-10.83796875 2.74851562 -11.4103125 2.37984375 -12 2 C-10.75579353 1.4654744 -9.50429064 0.94791389 -8.25 0.4375 C-7.55390625 0.14746094 -6.8578125 -0.14257812 -6.140625 -0.44140625 C-3.69987216 -1.07831803 -2.3596345 -0.80248831 0 0 Z " fill="#773BF2" transform="translate(360,465)"/>
<path d="M0 0 C0.99 1.32 1.98 2.64 3 4 C2.34 4 1.68 4 1 4 C1 4.66 1 5.32 1 6 C-0.32 6.33 -1.64 6.66 -3 7 C-3.33 6.01 -3.66 5.02 -4 4 C-2.68 2.68 -1.36 1.36 0 0 Z " fill="#956BEC" transform="translate(67,76)"/>
<path d="M0 0 C-0.99 0.33 -1.98 0.66 -3 1 C-3 1.66 -3 2.32 -3 3 C-6.3 3 -9.6 3 -13 3 C-8.28204509 0.64102255 -5.23723208 -0.14547867 0 0 Z " fill="#C2AAEE" transform="translate(197,5)"/>
<path d="M0 0 C-0.33 1.32 -0.66 2.64 -1 4 C-4.3 4 -7.6 4 -11 4 C-11 3.67 -11 3.34 -11 3 C-9.54293274 2.49632243 -8.08429904 1.99717444 -6.625 1.5 C-5.81289062 1.2215625 -5.00078125 0.943125 -4.1640625 0.65625 C-2 0 -2 0 0 0 Z " fill="#EDE2F4" transform="translate(228,334)"/>
<path d="M0 0 C0.99 0 1.98 0 3 0 C1.44499019 3.81684226 -1.03595495 6.19195732 -4 9 C-3.49581669 5.26904354 -2.84631029 3.47505242 0 1 C0 0.67 0 0.34 0 0 Z " fill="#703DE2" transform="translate(87,119)"/>
<path d="M0 0 C0.66 0.33 1.32 0.66 2 1 C0.06745228 3.0245738 -1.63158688 4.42105792 -4 6 C-6.1875 5.625 -6.1875 5.625 -8 5 C-6.71475739 4.13619741 -5.42157581 3.28419631 -4.125 2.4375 C-3.04605469 1.72400391 -3.04605469 1.72400391 -1.9453125 0.99609375 C-1.30335937 0.66738281 -0.66140625 0.33867187 0 0 Z " fill="#A37FE6" transform="translate(126,30)"/>
<path d="M0 0 C3.7910119 1.44950455 7.3874638 3.15172566 11 5 C8 6 8 6 5.95703125 5.22265625 C5.24933594 4.83980469 4.54164063 4.45695312 3.8125 4.0625 C3.09707031 3.68222656 2.38164062 3.30195312 1.64453125 2.91015625 C1.10183594 2.60980469 0.55914062 2.30945313 0 2 C0 1.34 0 0.68 0 0 Z " fill="#8F65E2" transform="translate(362,29)"/>
<path d="M0 0 C0 0.66 0 1.32 0 2 C-4.455 3.485 -4.455 3.485 -9 5 C-8.67 4.01 -8.34 3.02 -8 2 C-5.10441559 0.5522078 -3.25811062 0 0 0 Z " fill="#753CEF" transform="translate(338,473)"/>
<path d="M0 0 C-1.4375 1.5625 -1.4375 1.5625 -4 3 C-7.05380927 2.96846324 -9.99653222 2.53266629 -13 2 C-13 1.67 -13 1.34 -13 1 C-8.59085217 -0.10228696 -4.51617599 -0.07654536 0 0 Z " fill="#6732DF" transform="translate(283,444)"/>
<path d="M0 0 C0.66 0.33 1.32 0.66 2 1 C1.4375 2.9375 1.4375 2.9375 0 5 C-3.625 5.75 -3.625 5.75 -7 6 C-4.74259377 3.66475218 -2.7194239 1.81294927 0 0 Z " fill="#6F3DE1" transform="translate(361,410)"/>
<path d="M0 0 C0.99 0.33 1.98 0.66 3 1 C1.35 2.65 -0.3 4.3 -2 6 C-2.66 5.34 -3.32 4.68 -4 4 C-2.68 2.68 -1.36 1.36 0 0 Z " fill="#E9E5EF" transform="translate(384,388)"/>
<path d="M0 0 C0.66 0 1.32 0 2 0 C1.01 2.97 0.02 5.94 -1 9 C-1.66 8.34 -2.32 7.68 -3 7 C-3 6.01 -3 5.02 -3 4 C-2.34 4 -1.68 4 -1 4 C-0.67 2.68 -0.34 1.36 0 0 Z " fill="#7C41F6" transform="translate(474,334)"/>
<path d="M0 0 C2.56616632 3.84924948 2.55097676 6.4349304 3 11 C0.9375 8.875 0.9375 8.875 -1 6 C-0.75 2.6875 -0.75 2.6875 0 0 Z " fill="#703CDD" transform="translate(50,291)"/>
<path d="M0 0 C0.66 0 1.32 0 2 0 C2.33 3.3 2.66 6.6 3 10 C0.9375 8.375 0.9375 8.375 -1 6 C-0.75 2.75 -0.75 2.75 0 0 Z " fill="#EBE7EA" transform="translate(52,288)"/>
<path d="M0 0 C0.66 0 1.32 0 2 0 C1.67 1.65 1.34 3.3 1 5 C-0.32 5.33 -1.64 5.66 -3 6 C-1.125 1.125 -1.125 1.125 0 0 Z " fill="#8251ED" transform="translate(70,73)"/>
<path d="M0 0 C0.33 0.66 0.66 1.32 1 2 C2.65 2 4.3 2 6 2 C5.67 2.99 5.34 3.98 5 5 C2.83125748 4.49396008 1.00032373 4.00016187 -1 3 C-0.67 2.01 -0.34 1.02 0 0 Z " fill="#7A42F1" transform="translate(124,457)"/>
<path d="M0 0 C1.32 0.66 2.64 1.32 4 2 C2.625 3.5 2.625 3.5 1 5 C0.34 5 -0.32 5 -1 5 C-1 4.34 -1 3.68 -1 3 C-1.66 2.67 -2.32 2.34 -3 2 C-2.01 1.34 -1.02 0.68 0 0 Z " fill="#7A48E8" transform="translate(117,88)"/>
<path d="M0 0 C2.15377564 2.62198774 3.40072174 4.64404172 4 8 C2.62437146 6.71034824 1.29233607 5.37310707 0 4 C0 3.34 0 2.68 0 2 C-0.99 2.33 -1.98 2.66 -3 3 C-3 2.34 -3 1.68 -3 1 C-2.01 0.67 -1.02 0.34 0 0 Z " fill="#ECEAE9" transform="translate(85,359)"/>
<path d="M0 0 C1.15941038 3.47823115 0.70820884 5.45895578 0 9 C-0.99 9 -1.98 9 -3 9 C-2.01 6.03 -1.02 3.06 0 0 Z " fill="#E8E5E9" transform="translate(432,316)"/>
<path d="M0 0 C1.98 1.65 3.96 3.3 6 5 C3.50907189 6.24546405 2.58919267 5.7767578 0 5 C0 3.35 0 1.7 0 0 Z " fill="#7039E3" transform="translate(192,259)"/>
<path d="M0 0 C0 0.99 0 1.98 0 3 C-2.35953094 5.35953094 -3.77895617 5.49141413 -7 6 C-2.25 1.125 -2.25 1.125 0 0 Z " fill="#EBE2F2" transform="translate(382,183)"/>
<path d="M0 0 C0.99 0.33 1.98 0.66 3 1 C-0.625 6.75 -0.625 6.75 -4 9 C-3.71125 8.443125 -3.4225 7.88625 -3.125 7.3125 C-1.9586747 4.91505355 -0.9660119 2.48403061 0 0 Z " fill="#6E3DDE" transform="translate(95,109)"/>
</svg>
